<svg width="223" height="256" viewBox="0 0 223 256" fill="none" xmlns="http://www.w3.org/2000/svg">
<g clip-path="url(#clip0_199_2)">
<path fill-rule="evenodd" clip-rule="evenodd" d="M166.5 1.99873C154.9 4.83073 140.321 12.4177 126.5 22.8177C119.9 27.7837 112.025 32.7997 109 33.9647C99.0131 37.8097 98.9931 37.9547 108.5 37.5467C116.16 37.2187 119.137 36.5277 128.5 32.9047C147.538 25.5367 154.591 23.7027 164.5 23.5447C172.654 23.4147 174.064 23.6837 179.5 26.4017C186.972 30.1377 191.195 35.5277 194.241 45.2177C196.238 51.5687 196.494 54.4307 196.448 69.9017C196.352 101.933 187.557 143.564 173.92 176.533C166.974 193.328 156.464 209.663 154.088 207.358C153.496 206.783 152.113 201.323 151.014 195.225C143.458 153.258 121.391 124.127 91.3561 116.469C81.0851 113.85 79.8591 114.647 88.4131 118.381C117.582 131.115 131.443 150.398 135.004 183.193C138.779 217.964 141.509 230.023 146.916 235.813C150.792 239.962 153.976 239.822 159.001 235.283C171.412 224.069 188.836 181.411 207.447 116.672C220.149 72.4887 223.02 59.2597 222.983 45.0797C222.895 11.2597 200.025 -6.18327 166.5 1.99873Z" fill="url(#paint0_linear_199_2)"/>
<path fill-rule="evenodd" clip-rule="evenodd" d="M31.5001 15.3038C16.0861 20.1918 5.47112 32.2968 1.38012 49.6518C0.154118 54.8558 -0.0888806 59.6078 0.321119 70.4018C0.802119 83.0818 1.32412 86.1938 5.86412 103.402C26.0921 180.074 46.2461 235.675 59.1051 250.284C69.1871 261.737 73.3831 256.255 82.9981 219.069C90.6281 189.562 93.6781 182.206 101.866 173.57C106.382 168.807 109.957 166.851 117 165.289L122.5 164.07L116.5 163.996C108.756 163.9 102.089 166.988 95.9041 173.536C89.0801 180.761 87.3451 183.57 77.5001 203.33C67.2021 223.998 65.1381 226.244 60.4531 221.877C51.2721 213.319 36.9571 168.004 27.9241 118.902C25.3461 104.886 24.1951 74.5128 25.8971 65.4018C27.6621 55.9558 31.3651 49.3578 36.6371 46.2688C40.6211 43.9338 41.8671 43.6978 47.7181 44.1668C55.9411 44.8268 70.0871 51.6418 83.5001 61.4058C100.003 73.4178 110.736 77.1848 128.5 77.1978C141.637 77.2078 150.11 75.3278 161.585 69.8588C168.818 66.4098 180 57.9598 180 55.9418C180 55.5158 176.063 56.7338 171.25 58.6488C158.668 63.6548 145.017 66.9018 136.553 66.9018C119.596 66.9018 106.981 59.5518 91.4261 40.6108C79.5111 26.1018 70.4591 19.4898 57.0681 15.5138C50.6151 13.5988 37.2261 13.4878 31.5001 15.3038Z" fill="url(#paint1_linear_199_2)"/>
</g>
<defs>
<linearGradient id="paint0_linear_199_2" x1="223" y1="119" x2="83.0001" y2="119" gradientUnits="userSpaceOnUse">
<stop stop-color="#40BEEE"/>
<stop offset="1" stop-color="#017EC0"/>
</linearGradient>
<linearGradient id="paint1_linear_199_2" x1="-1.70137e-06" y1="256" x2="180" y2="14" gradientUnits="userSpaceOnUse">
<stop stop-color="#007DBA"/>
<stop offset="1" stop-color="#61C4FF"/>
</linearGradient>
<clipPath id="clip0_199_2">
<rect width="223" height="256" fill="white"/>
</clipPath>
</defs>
</svg>
